<svg width="100" height="100" viewBox="0 0 100 100" fill="none" xmlns="http://www.w3.org/2000/svg">
<g clip-path="url(#clip0_243_84)">
<rect width="100" height="100" rx="50" fill="#01253F"/>
<g clip-path="url(#clip1_243_84)">
<path d="M25.0061 37.3167C25.0099 37.6546 24.9474 37.9899 24.8224 38.3029C24.6974 38.6159 24.5123 38.9002 24.278 39.1392C24.0438 39.3782 23.7651 39.567 23.4584 39.6945C23.1516 39.8221 22.8229 39.8858 22.4917 39.882C22.2509 39.8784 22.0122 39.8344 21.7853 39.7519C21.3357 39.6552 20.8766 39.6115 20.4172 39.6218C17.3736 39.6218 15.2124 41.378 15.2124 45.5186V54.7C15.2124 56.3208 14.1924 57.4903 12.6087 57.4903C11.0251 57.4903 10.0063 56.3195 10.0063 54.7V37.7668C10.0063 36.1459 11.0264 34.9765 12.6087 34.9765C14.1095 34.9765 15.0313 36.0106 15.1244 37.5417V38.079H15.3004C16.4479 35.9638 19.0057 34.5667 21.1657 34.5667C21.7467 34.5558 22.3262 34.6316 22.8857 34.7917C24.1671 35.156 25.0061 36.1017 25.0061 37.3167Z" fill="white"/>
<path d="M36.8732 34.6161C42.8277 34.6161 47.2012 38.8465 47.2012 43.4827C47.2012 47.5791 44.2456 47.9382 43.4066 47.9382H31.0054C31.7105 51.3139 34.2695 53.1598 37.4023 53.1598C38.8434 53.175 40.2563 52.752 41.4608 51.9448C42.3432 51.3139 42.917 51.2241 43.3581 51.2241C45.0336 51.2241 45.6532 52.525 45.6532 53.6541C45.6532 54.4203 45.3447 55.1397 44.1525 55.9046C42.565 56.9856 40.094 57.8402 37.183 57.8402C30.1243 57.8402 25.6246 52.7994 25.6246 46.2288C25.6234 39.3864 30.5642 34.6161 36.8732 34.6161ZM36.8286 39.0273C33.961 39.0273 31.7551 40.8719 31.0487 43.8405H42.1226C42.1226 41.1425 39.9168 39.0273 36.8286 39.0273Z" fill="white"/>
<path d="M70.5755 43.8027V54.6948C70.5755 56.3156 69.5554 57.4851 67.9731 57.4851C66.3907 57.4851 65.3707 56.3143 65.3707 54.6948V43.8027C65.3707 40.202 63.2031 39.3018 60.653 39.3018C56.991 39.3018 55.4469 41.1477 55.4469 43.3084V54.6948C55.4469 56.3156 54.4269 57.4851 52.8445 57.4851C51.2622 57.4851 50.2408 56.3143 50.2408 54.6948V37.7668C50.2408 36.1459 51.2609 34.9765 52.8445 34.9765C54.2994 34.9765 55.2671 35.9664 55.3589 37.4481V37.4923H55.6229C56.8584 36.0978 59.193 34.6122 62.5082 34.6122C66.7375 34.6161 70.5755 37.0917 70.5755 43.8027Z" fill="white"/>
<path d="M79.7521 28C81.3395 28 82.3544 29.1708 82.3544 30.7903V34.9765H86.1924C87.7811 34.9765 88.884 35.8767 88.884 37.4065C88.884 38.9363 87.7811 39.8364 86.1924 39.8364H82.3544V48.9294C82.3544 51.5844 83.5453 52.5289 85.1774 52.5289H86.3683C87.8691 52.5289 88.884 53.3848 88.884 55.0005C88.884 56.6161 87.864 57.4721 86.3683 57.4721H85.0015C80.4572 57.4721 77.193 55.1306 77.193 48.9658V39.8364H75.8695C74.3254 39.8364 73.1779 38.9363 73.1779 37.4065C73.1779 35.8767 74.3254 34.9765 75.8695 34.9765H77.193V30.7942C77.193 29.1695 78.208 28 79.7521 28Z" fill="white"/>
<path d="M10.0995 62.6573C14.1167 66.9537 19.2595 69.9817 24.9156 71.3808C28.6459 72.2257 32.5151 72.1999 36.2343 71.3053C43.1489 69.6259 47.4204 65.3995 49.0576 63.59C49.8366 62.2813 49.6007 60.6175 48.5565 59.6614C47.6563 58.838 46.2971 58.6741 45.1623 59.2647C43.6915 60.5058 42.102 61.5927 40.4178 62.509C37.2248 64.2364 33.7421 65.3365 30.151 65.752C28.6188 65.6681 27.0982 65.4328 25.6105 65.0495C20.3828 63.7019 16.7336 60.8166 14.682 58.8575C14.1245 58.5779 13.5002 58.4672 12.883 58.5384C12.2657 58.6097 11.6814 58.8599 11.1993 59.2594C10.7171 59.659 10.3572 60.1911 10.1623 60.7928C9.9674 61.3946 9.94559 62.0407 10.0995 62.6547V62.6573Z" fill="#6CC28C"/>
<path d="M50.8159 66.6171C50.8159 64.2274 52.4646 62.4674 54.8527 62.4674C56.9936 62.4674 58.7187 63.7682 58.7187 65.9406V69.4776C58.7187 70.0422 58.3643 70.4507 57.8096 70.4507C57.693 70.456 57.5766 70.4366 57.4678 70.3935C57.359 70.3504 57.2602 70.2847 57.1776 70.2005C57.0951 70.1163 57.0307 70.0154 56.9884 69.9044C56.9462 69.7934 56.9271 69.6747 56.9324 69.5557V69.5245H56.8393C56.4568 70.0448 55.7453 70.5769 54.5442 70.5769C52.4952 70.5769 50.8159 69.021 50.8159 66.6171ZM54.7444 68.9274C56.0105 68.9274 56.903 68.2197 56.903 66.9579V66.0629C56.903 64.7425 56.0717 64.1298 54.8553 64.1298C53.2997 64.1298 52.6367 65.151 52.6367 66.5182C52.6341 68.0779 53.4043 68.9274 54.7444 68.9274Z" fill="white"/>
<path d="M67.6058 64.1494C66.281 64.1494 65.4178 65.1549 65.4178 66.5221C65.4178 67.8893 66.281 68.8962 67.6058 68.8962C67.9101 68.9017 68.2122 68.8431 68.4932 68.724C68.7743 68.6049 69.0282 68.4279 69.2391 68.2041C69.3136 68.1119 69.4079 68.0384 69.5147 67.9892C69.6215 67.94 69.7379 67.9165 69.855 67.9205C69.971 67.9199 70.0858 67.9433 70.1927 67.9892C70.2996 68.0352 70.3962 68.1027 70.4768 68.1878C70.5573 68.2729 70.6201 68.3738 70.6614 68.4844C70.7027 68.595 70.7216 68.7129 70.7169 68.8311C70.7185 68.9463 70.696 69.0606 70.6509 69.1662C70.6058 69.2718 70.5392 69.3665 70.4555 69.4438C69.8703 70.0943 68.8069 70.5756 67.5599 70.5756C65.3107 70.5756 63.6008 68.8467 63.6008 66.5208C63.6008 64.1949 65.3107 62.4661 67.5905 62.4661C68.8069 62.4661 69.8397 62.9227 70.3956 63.5354C70.523 63.6566 70.6118 63.814 70.6507 63.9873C70.6896 64.1606 70.6767 64.3417 70.6137 64.5075C70.5507 64.6732 70.4406 64.8159 70.2974 64.9171C70.1542 65.0184 69.9846 65.0736 69.8104 65.0756C69.695 65.0766 69.5806 65.0533 69.4744 65.0072C69.3682 64.9611 69.2725 64.8932 69.1932 64.8076C68.9897 64.5891 68.7428 64.4173 68.4691 64.3038C68.1954 64.1903 67.901 64.1376 67.6058 64.1494Z" fill="white"/>
<path d="M71.6414 66.6171C71.6414 64.2274 73.2887 62.4674 75.6769 62.4674C77.8177 62.4674 79.5429 63.7682 79.5429 65.9406V69.4776C79.5429 70.0422 79.1884 70.4507 78.635 70.4507C78.5183 70.4562 78.4018 70.4369 78.2928 70.3939C78.1839 70.3509 78.0849 70.2852 78.0022 70.201C77.9195 70.1167 77.855 70.0159 77.8127 69.9048C77.7704 69.7937 77.7513 69.6748 77.7565 69.5557V69.5245H77.6635C77.2809 70.0448 76.5707 70.5769 75.3683 70.5769C73.3206 70.5769 71.6414 69.021 71.6414 66.6171ZM75.5685 68.9274C76.8321 68.9274 77.7259 68.2197 77.7259 66.9618V66.0668C77.7259 64.7465 76.8933 64.1338 75.6769 64.1338C74.1213 64.1338 73.4583 65.1549 73.4583 66.5221C73.4583 68.0779 74.2284 68.9274 75.5685 68.9274Z" fill="white"/>
<path d="M85.3189 62.4674C87.3679 62.4674 89.0013 64.0284 89.0013 66.4285C89.0013 68.8285 87.3679 70.5769 84.9797 70.5769C82.8389 70.5769 81.1138 69.2877 81.1138 67.088V60.3782C81.1138 59.8123 81.4682 59.4026 82.0063 59.4026C82.5444 59.4026 82.9154 59.8123 82.9154 60.3782V63.5991H83.0072C83.2785 63.2387 83.6292 62.9485 84.0307 62.7519C84.4323 62.5553 84.8736 62.4578 85.3189 62.4674ZM84.9644 68.8962C86.5366 68.8962 87.183 67.8737 87.183 66.5065C87.183 64.9351 86.418 64.1025 85.0728 64.1025C83.8245 64.1025 82.9167 64.8089 82.9167 66.0824V66.9787C82.9142 68.2822 83.748 68.8962 84.9644 68.8962Z" fill="white"/>
</g>
</g>
<defs>
<clipPath id="clip0_243_84">
<rect width="100" height="100" rx="50" fill="white"/>
</clipPath>
<clipPath id="clip1_243_84">
<rect width="79" height="44" fill="white" transform="translate(10 28)"/>
</clipPath>
</defs>
</svg>
